:FULLY-SPECIFIED
:FORCE-ALL-JOINTS-BE-3DOF
:DEGREES
1121
root 1.10233 14.6626 -27.5909 3.29294 1.9256 4.8813
lfemur -29.9194 11.0207 -26.3902
ltibia 69.9424 -0 0
lfoot -25.3218 30.742 0.10274
ltoes -13.2096 0 0
rfemur -50.6112 -11.9574 14.6754
rtibia 97.5368 -0 0
rfoot -5.00314 -1.0302 -0.0189917
rtoes -10.0192 0 0
lowerback 14.5232 1.26878 -10.9034
upperback -0.768244 -0.118392 0.825956
thorax -9.04553 0.492921 7.18072
lowerneck -5.37421 -2.08387 -4.17674
upperneck 3.70616 -2.67389 4.46629
head 2.50553 -1.33858 1.83485
lclavicle -7.36994e-14 -1.23246e-14 0
lhumerus 41.1592 -28.1352 56.7619
lradius 88.0566 -0 0
lwrist 38.8235 0 0
lhand -28.4633 30.7306 -1.32632
lfingers 7.12502 -0 0
lthumb -1.83724 60.4112 -1.29896
rclavicle -7.36994e-14 -1.23246e-14 0
rhumerus -11.0438 28.216 -74.9842
rradius 85.2077 -0 0
rwrist -28.9476 0 0
rhand -25.9857 -50.0813 -0.641679
rfingers 7.12502 -0 0
rthumb 0.562174 -79.9179 -0.636916
1122
root 1.07391 14.658 -27.4104 2.98575 3.12701 5.09408
lfemur -28.3114 10.8191 -26.1065
ltibia 69.3217 -0 0
lfoot -25.5596 31.0892 0.111305
ltoes -13.1985 0 0
rfemur -50.9462 -11.9992 14.3069
rtibia 96.4777 -0 0
rfoot -4.56858 -0.559028 -0.0257925
rtoes -9.58185 0 0
lowerback 14.4844 1.37099 -11.0274
upperback -0.732558 -0.00784677 0.697693
thorax -9.00565 0.544803 7.08783
lowerneck -5.23001 -2.53771 -4.55785
upperneck 3.86027 -3.27993 4.79701
head 2.58316 -1.64193 1.96423
lclavicle -7.36994e-14 -1.23246e-14 0
lhumerus 36.7955 -29.417 58.8399
lradius 88.7688 -0 0
lwrist 39.546 0 0
lhand -27.7431 29.9422 -1.40917
lfingers 7.12502 -0 0
lthumb -1.14204 59.6104 -1.38003
rclavicle -7.36994e-14 -1.23246e-14 0
rhumerus -7.13378 27.9938 -72.4023
rradius 85.2134 -0 0
rwrist -27.0223 0 0
rhand -26.6215 -49.9457 -0.684762
rfingers 7.12502 -0 0
rthumb -0.0516397 -79.7765 -0.679642
1123
root 1.04421 14.6521 -27.235 2.67682 4.3406 5.29444
lfemur -26.692 10.6135 -25.8035
ltibia 68.6943 -0 0
lfoot -25.7977 31.4277 0.119971
ltoes -13.1932 0 0
rfemur -51.2513 -12.0449 13.9239
rtibia 95.3521 -0 0
rfoot -4.13257 -0.0924947 -0.0339295
rtoes -9.14847 0 0
lowerback 14.4426 1.47458 -11.1451
upperback -0.696714 0.106228 0.570022
thorax -8.96427 0.598006 6.99107
lowerneck -5.07934 -2.99601 -4.94574
upperneck 4.01714 -3.89442 5.13144
head 2.6627 -1.94921 2.09525
lclavicle -7.36994e-14 -1.23246e-14 0
lhumerus 32.2452 -30.5717 61.0842
lradius 89.4983 -0 0
lwrist 40.2703 0 0
lhand -27.0071 29.1325 -1.48312
lfingers 7.12502 -0 0
lthumb -0.431573 58.7881 -1.45237
rclavicle -7.36994e-14 -1.23246e-14 0
rhumerus -3.19151 27.6117 -69.7969
rradius 85.2356 -0 0
rwrist -25.0701 0 0
rhand -27.2637 -49.7913 -0.724704
rfingers 7.12502 -0 0
rthumb -0.671568 -79.6158 -0.719242
1124
root 1.0133 14.645 -27.0643 2.36666 5.56284 5.48182
lfemur -25.0658 10.4034 -25.4825
ltibia 68.0622 -0 0
lfoot -26.0356 31.7566 0.128681
ltoes -13.1936 0 0
rfemur -51.5261 -12.0941 13.5277
rtibia 94.1642 -0 0
rfoot -3.6963 0.368212 -0.0433683
rtoes -8.72017 0 0
lowerback 14.3979 1.57925 -11.2563
upperback -0.660823 0.223469 0.443281
thorax -8.92155 0.652375 6.89075
lowerneck -4.92252 -3.45739 -5.33937
upperneck 4.17615 -4.51564 5.46853
head 2.74386 -2.25954 2.22751
lclavicle -7.36994e-14 -1.23246e-14 0
lhumerus 27.5241 -31.5782 63.4829
lradius 90.243 -0 0
lwrist 40.9944 0 0
lhand -26.2577 28.3042 -1.54725
lfingers 7.12502 -0 0
lthumb 0.291935 57.947 -1.51509
rclavicle -7.36994e-14 -1.23246e-14 0
rhumerus 0.757001 27.0662 -67.1928
rradius 85.2741 -0 0
rwrist -23.0969 0 0
rhand -27.9103 -49.6188 -0.761094
rfingers 7.12502 -0 0
rthumb -1.29585 -79.4367 -0.755309
